<?xml version="1.0" encoding="UTF-8"?>
<svg id="Layer_2" data-name="Layer 2" xmlns="http://www.w3.org/2000/svg" viewBox="0 0 945.54 467.29">
  <defs>
    <style>
      .cls-1 {
        fill: #301408;
        stroke: #281812;
        stroke-miterlimit: 10;
        stroke-width: 3px;
      }
    </style>
  </defs>
  <g id="grid_960_x_960_2_" data-name="grid 960 x (960/2)">
    <g>
      <rect class="cls-1" x="1.5" y="1.5" width="90" height="80" rx="4" ry="4"/>
      <rect class="cls-1" x="108.05" y="1.5" width="90" height="80" rx="4" ry="4"/>
      <rect class="cls-1" x="214.6" y="1.5" width="90" height="80" rx="4" ry="4"/>
      <rect class="cls-1" x="321.15" y="1.5" width="90" height="80" rx="4" ry="4"/>
      <rect class="cls-1" x="427.7" y="1.5" width="90" height="80" rx="4" ry="4"/>
      <rect class="cls-1" x="534.25" y="1.5" width="90" height="80" rx="4" ry="4"/>
      <rect class="cls-1" x="640.8" y="1.5" width="90" height="80" rx="4" ry="4"/>
      <rect class="cls-1" x="747.35" y="1.5" width="90" height="80" rx="4" ry="4"/>
      <rect class="cls-1" x="853.9" y="1.5" width="90" height="80" rx="4" ry="4"/>
      <rect class="cls-1" x="1.5" y="97.37" width="90" height="80" rx="4" ry="4"/>
      <rect class="cls-1" x="108.05" y="97.37" width="90" height="80" rx="4" ry="4"/>
      <rect class="cls-1" x="214.6" y="97.37" width="90" height="80" rx="4" ry="4"/>
      <rect class="cls-1" x="321.15" y="97.37" width="90" height="80" rx="4" ry="4"/>
      <rect class="cls-1" x="427.7" y="97.37" width="90" height="80" rx="4" ry="4"/>
      <rect class="cls-1" x="534.25" y="97.37" width="90" height="80" rx="4" ry="4"/>
      <rect class="cls-1" x="640.8" y="97.37" width="90" height="80" rx="4" ry="4"/>
      <rect class="cls-1" x="747.35" y="97.37" width="90" height="80" rx="4" ry="4"/>
      <rect class="cls-1" x="853.9" y="97.37" width="90" height="80" rx="4" ry="4"/>
      <rect class="cls-1" x="1.5" y="193.62" width="90" height="80" rx="4" ry="4"/>
      <rect class="cls-1" x="108.05" y="193.62" width="90" height="80" rx="4" ry="4"/>
      <rect class="cls-1" x="214.6" y="193.62" width="90" height="80" rx="4" ry="4"/>
      <rect class="cls-1" x="321.15" y="193.62" width="90" height="80" rx="4" ry="4"/>
      <rect class="cls-1" x="427.7" y="193.62" width="90" height="80" rx="4" ry="4"/>
      <rect class="cls-1" x="534.25" y="193.62" width="90" height="80" rx="4" ry="4"/>
      <rect class="cls-1" x="640.8" y="193.62" width="90" height="80" rx="4" ry="4"/>
      <rect class="cls-1" x="747.35" y="193.62" width="90" height="80" rx="4" ry="4"/>
      <rect class="cls-1" x="853.9" y="193.62" width="90" height="80" rx="4" ry="4"/>
      <rect class="cls-1" x="1.5" y="289.5" width="90" height="80" rx="4" ry="4"/>
      <rect class="cls-1" x="108.05" y="289.5" width="90" height="80" rx="4" ry="4"/>
      <rect class="cls-1" x="214.6" y="289.5" width="90" height="80" rx="4" ry="4"/>
      <rect class="cls-1" x="321.15" y="289.5" width="90" height="80" rx="4" ry="4"/>
      <rect class="cls-1" x="427.7" y="289.5" width="90" height="80" rx="4" ry="4"/>
      <rect class="cls-1" x="534.25" y="289.5" width="90" height="80" rx="4" ry="4"/>
      <rect class="cls-1" x="640.8" y="289.5" width="90" height="80" rx="4" ry="4"/>
      <rect class="cls-1" x="747.35" y="289.5" width="90" height="80" rx="4" ry="4"/>
      <rect class="cls-1" x="853.9" y="289.5" width="90" height="80" rx="4" ry="4"/>
      <rect class="cls-1" x="1.64" y="385.79" width="90" height="80" rx="4" ry="4"/>
      <rect class="cls-1" x="108.19" y="385.79" width="90" height="80" rx="4" ry="4"/>
      <rect class="cls-1" x="214.74" y="385.79" width="90" height="80" rx="4" ry="4"/>
      <rect class="cls-1" x="321.29" y="385.79" width="90" height="80" rx="4" ry="4"/>
      <rect class="cls-1" x="427.84" y="385.79" width="90" height="80" rx="4" ry="4"/>
      <rect class="cls-1" x="534.39" y="385.79" width="90" height="80" rx="4" ry="4"/>
      <rect class="cls-1" x="640.94" y="385.79" width="90" height="80" rx="4" ry="4"/>
      <rect class="cls-1" x="747.49" y="385.79" width="90" height="80" rx="4" ry="4"/>
      <rect class="cls-1" x="854.04" y="385.79" width="90" height="80" rx="4" ry="4"/>
    </g>
  </g>
</svg>